<svg width="98" height="98" viewBox="0 0 98 98" fill="none" xmlns="http://www.w3.org/2000/svg">
<g clip-path="url(#clip0_223_558)">
<mask id="path-1-inside-1_223_558" fill="white">
<path d="M97.5512 78.0617L76.4199 56.9304C76.5246 56.8483 76.6346 56.7731 76.7492 56.7053L82.3811 53.7087C83.8214 52.9515 84.9088 51.6615 85.4114 50.1139C85.914 48.5663 85.792 46.8836 85.0715 45.4246L82.2662 39.687C82.0509 39.2497 81.9389 38.7688 81.9389 38.2813C81.9389 37.7939 82.0509 37.313 82.2662 36.8756L85.0715 31.1381C85.792 29.6791 85.914 27.9964 85.4114 26.4488C84.9088 24.9012 83.8214 23.6112 82.3811 22.854L76.743 19.8604C76.312 19.6333 75.9389 19.3101 75.6527 18.9158C75.3664 18.5215 75.1747 18.0667 75.0923 17.5865L73.9883 11.2961C73.7137 9.69272 72.8235 8.26003 71.5077 7.30349C70.1919 6.34695 68.5545 5.94223 66.9446 6.17562L60.6205 7.0714C60.1382 7.13856 59.647 7.0953 59.1838 6.9449C58.7207 6.7945 58.2978 6.54088 57.9469 6.20318L53.3532 1.76255C52.1883 0.626329 50.6255 -0.00964355 48.9983 -0.00964355C47.3711 -0.00964355 45.8083 0.626329 44.6434 1.76255L40.0497 6.20318C39.6989 6.54088 39.2759 6.7945 38.8128 6.9449C38.3497 7.0953 37.8584 7.13856 37.3761 7.0714L31.0505 6.17562C29.4407 5.94303 27.8037 6.34807 26.4881 7.30447C25.1725 8.26087 24.2822 9.69308 24.0068 11.2961L22.9028 17.5865C22.8204 18.0669 22.6286 18.522 22.342 18.9163C22.0555 19.3106 21.682 19.6337 21.2505 19.8604L15.6186 22.854C14.1783 23.6112 13.0909 24.9012 12.5883 26.4488C12.0857 27.9964 12.2077 29.6791 12.9282 31.1381L15.7334 36.8756C15.9488 37.313 16.0608 37.7939 16.0608 38.2813C16.0608 38.7688 15.9488 39.2497 15.7334 39.687L12.9221 45.4246C12.2015 46.8836 12.0796 48.5663 12.5822 50.1139C13.0848 51.6615 14.1722 52.9515 15.6125 53.7087L21.2567 56.7023C21.3705 56.7704 21.4799 56.8456 21.5843 56.9274L0.453095 78.0586C0.259615 78.2519 0.121409 78.4934 0.0528357 78.7581C-0.0157371 79.0228 -0.0121745 79.301 0.0631534 79.5639C0.138481 79.8268 0.282826 80.0647 0.48119 80.2529C0.679554 80.4411 0.9247 80.5728 1.19116 80.6342L14.3339 83.6676L17.3673 96.8103C17.4287 97.0768 17.5604 97.3219 17.7486 97.5203C17.9368 97.7186 18.1747 97.863 18.4376 97.9383C18.7004 98.0136 18.9787 98.0172 19.2434 97.9486C19.5081 97.8801 19.7496 97.7419 19.9428 97.5484L43.6512 73.8385L44.645 74.8017C45.81 75.9375 47.3727 76.5732 48.9998 76.5732C50.627 76.5732 52.1897 75.9375 53.3547 74.8017L54.3485 73.8385L78.0614 97.5514C78.2547 97.7449 78.4962 97.8831 78.7609 97.9517C79.0256 98.0203 79.3038 98.0167 79.5667 97.9414C79.8296 97.866 80.0675 97.7217 80.2557 97.5233C80.4439 97.325 80.5756 97.0798 80.637 96.8134L83.6704 83.6706L96.8131 80.6372C97.0796 80.5758 97.3247 80.4442 97.5231 80.2559C97.7215 80.0677 97.8658 79.8298 97.9411 79.567C98.0165 79.3041 98.02 79.0258 97.9514 78.7611C97.8829 78.4964 97.7447 78.2549 97.5512 78.0617ZM19.7254 93.4324L17.0993 82.0491C17.0348 81.7692 16.893 81.5131 16.6899 81.31C16.4868 81.107 16.2307 80.9651 15.9509 80.9006L4.56756 78.2745L23.0513 59.7908L24.0114 65.2666C24.2875 66.8692 25.178 68.301 26.4934 69.2572C27.8088 70.2135 29.4454 70.6188 31.0551 70.3871L37.3792 69.4913C37.8615 69.4248 38.3525 69.4684 38.8155 69.6187C39.2786 69.7691 39.7015 70.0224 40.0527 70.3595L41.4477 71.7085L19.7254 93.4324ZM46.7749 72.5997L44.7154 70.6091L42.1827 68.1591C41.0207 67.0281 39.4632 66.3952 37.8416 66.3951C37.544 66.3956 37.2467 66.4166 36.952 66.4579L30.6248 67.3537C29.8018 67.4746 28.9641 67.2684 28.2912 66.7793C27.6183 66.2902 27.1638 65.557 27.0249 64.7367L25.9208 58.4464C25.7854 57.7322 25.5263 57.0471 25.1552 56.4221C25.1206 56.3475 25.0801 56.2759 25.0343 56.2077C24.4626 55.2775 23.6555 54.5148 22.6945 53.9966L17.0518 51.003C16.3153 50.6168 15.7588 49.9581 15.5013 49.1673C15.2438 48.3765 15.3057 47.5164 15.6737 46.7706L18.479 41.0376C18.8998 40.1813 19.1186 39.24 19.1186 38.2859C19.1186 37.3319 18.8998 36.3905 18.479 35.5343L15.6737 29.7967C15.3057 29.0509 15.2438 28.1908 15.5013 27.4C15.7588 26.6092 16.3153 25.9504 17.0518 25.5643L22.693 22.5707C23.5371 22.1266 24.2679 21.4943 24.8286 20.7227C25.3894 19.9512 25.7652 19.0609 25.927 18.1209L27.031 11.8305C27.1674 11.01 27.6202 10.2757 28.2923 9.78545C28.9643 9.29525 29.8018 9.08828 30.6248 9.20902L36.9504 10.1048C37.8944 10.2403 38.8568 10.1574 39.7636 9.86248C40.6705 9.56755 41.4976 9.06844 42.1812 8.40359L46.7749 3.96296C47.3699 3.38214 48.1684 3.057 48.9998 3.057C49.8313 3.057 50.6298 3.38214 51.2248 3.96296L55.8185 8.40359C56.5017 9.06859 57.3285 9.56791 58.2351 9.86312C59.1417 10.1583 60.1039 10.2415 61.0477 10.1063L67.3748 9.20902C68.198 9.08765 69.0358 9.29366 69.7088 9.78287C70.3818 10.2721 70.8363 11.0055 70.9748 11.8259L72.0788 18.1163C72.2407 19.0561 72.6163 19.9461 73.1768 20.7177C73.7373 21.4893 74.4676 22.1217 75.3113 22.5661L80.954 25.5597C81.6906 25.9458 82.247 26.6046 82.5045 27.3954C82.762 28.1862 82.7001 29.0463 82.3321 29.7921L79.5207 35.5251C79.0999 36.3813 78.8811 37.3227 78.8811 38.2767C78.8811 39.2308 79.0999 40.1722 79.5207 41.0284L82.326 46.766C82.694 47.5118 82.7559 48.3719 82.4984 49.1627C82.2409 49.9535 81.6844 50.6123 80.9478 50.9984L75.3067 53.992C74.4626 54.436 73.7318 55.0683 73.1711 55.8399C72.6103 56.6115 72.2345 57.5017 72.0727 58.4418L70.9687 64.7321C70.8305 65.5518 70.3772 66.2849 69.7056 66.7748C69.0341 67.2646 68.1975 67.4724 67.3748 67.3537L61.0462 66.4563C60.1023 66.3209 59.1399 66.4039 58.233 66.6988C57.3262 66.9938 56.4991 67.4928 55.8154 68.1576L51.2217 72.5982C50.6271 73.1783 49.8293 73.5031 48.9986 73.5034C48.1679 73.5037 47.3699 73.1794 46.7749 72.5997ZM82.0488 80.9006C81.769 80.9651 81.5129 81.107 81.3098 81.31C81.1067 81.5131 80.9648 81.7692 80.9004 82.0491L78.2743 93.4324C78.2743 93.4324 71.6542 86.8123 67.4124 82.5704C63.1705 78.3286 56.5504 71.7085 56.5504 71.7085L57.9439 70.3595C58.2953 70.0227 58.7183 69.7697 59.1813 69.6194C59.6442 69.469 60.1352 69.4252 60.6174 69.4913L66.943 70.3871C68.5528 70.6192 70.1896 70.2141 71.5051 69.2577C72.8206 68.3014 73.711 66.8694 73.9868 65.2666L74.9469 59.7908L93.4321 78.2745L82.0488 80.9006Z"/>
</mask>
<path d="M97.5512 78.0617L76.4199 56.9304C76.5246 56.8483 76.6346 56.7731 76.7492 56.7053L82.3811 53.7087C83.8214 52.9515 84.9088 51.6615 85.4114 50.1139C85.914 48.5663 85.792 46.8836 85.0715 45.4246L82.2662 39.687C82.0509 39.2497 81.9389 38.7688 81.9389 38.2813C81.9389 37.7939 82.0509 37.313 82.2662 36.8756L85.0715 31.1381C85.792 29.6791 85.914 27.9964 85.4114 26.4488C84.9088 24.9012 83.8214 23.6112 82.3811 22.854L76.743 19.8604C76.312 19.6333 75.9389 19.3101 75.6527 18.9158C75.3664 18.5215 75.1747 18.0667 75.0923 17.5865L73.9883 11.2961C73.7137 9.69272 72.8235 8.26003 71.5077 7.30349C70.1919 6.34695 68.5545 5.94223 66.9446 6.17562L60.6205 7.0714C60.1382 7.13856 59.647 7.0953 59.1838 6.9449C58.7207 6.7945 58.2978 6.54088 57.9469 6.20318L53.3532 1.76255C52.1883 0.626329 50.6255 -0.00964355 48.9983 -0.00964355C47.3711 -0.00964355 45.8083 0.626329 44.6434 1.76255L40.0497 6.20318C39.6989 6.54088 39.2759 6.7945 38.8128 6.9449C38.3497 7.0953 37.8584 7.13856 37.3761 7.0714L31.0505 6.17562C29.4407 5.94303 27.8037 6.34807 26.4881 7.30447C25.1725 8.26087 24.2822 9.69308 24.0068 11.2961L22.9028 17.5865C22.8204 18.0669 22.6286 18.522 22.342 18.9163C22.0555 19.3106 21.682 19.6337 21.2505 19.8604L15.6186 22.854C14.1783 23.6112 13.0909 24.9012 12.5883 26.4488C12.0857 27.9964 12.2077 29.6791 12.9282 31.1381L15.7334 36.8756C15.9488 37.313 16.0608 37.7939 16.0608 38.2813C16.0608 38.7688 15.9488 39.2497 15.7334 39.687L12.9221 45.4246C12.2015 46.8836 12.0796 48.5663 12.5822 50.1139C13.0848 51.6615 14.1722 52.9515 15.6125 53.7087L21.2567 56.7023C21.3705 56.7704 21.4799 56.8456 21.5843 56.9274L0.453095 78.0586C0.259615 78.2519 0.121409 78.4934 0.0528357 78.7581C-0.0157371 79.0228 -0.0121745 79.301 0.0631534 79.5639C0.138481 79.8268 0.282826 80.0647 0.48119 80.2529C0.679554 80.4411 0.9247 80.5728 1.19116 80.6342L14.3339 83.6676L17.3673 96.8103C17.4287 97.0768 17.5604 97.3219 17.7486 97.5203C17.9368 97.7186 18.1747 97.863 18.4376 97.9383C18.7004 98.0136 18.9787 98.0172 19.2434 97.9486C19.5081 97.8801 19.7496 97.7419 19.9428 97.5484L43.6512 73.8385L44.645 74.8017C45.81 75.9375 47.3727 76.5732 48.9998 76.5732C50.627 76.5732 52.1897 75.9375 53.3547 74.8017L54.3485 73.8385L78.0614 97.5514C78.2547 97.7449 78.4962 97.8831 78.7609 97.9517C79.0256 98.0203 79.3038 98.0167 79.5667 97.9414C79.8296 97.866 80.0675 97.7217 80.2557 97.5233C80.4439 97.325 80.5756 97.0798 80.637 96.8134L83.6704 83.6706L96.8131 80.6372C97.0796 80.5758 97.3247 80.4442 97.5231 80.2559C97.7215 80.0677 97.8658 79.8298 97.9411 79.567C98.0165 79.3041 98.02 79.0258 97.9514 78.7611C97.8829 78.4964 97.7447 78.2549 97.5512 78.0617ZM19.7254 93.4324L17.0993 82.0491C17.0348 81.7692 16.893 81.5131 16.6899 81.31C16.4868 81.107 16.2307 80.9651 15.9509 80.9006L4.56756 78.2745L23.0513 59.7908L24.0114 65.2666C24.2875 66.8692 25.178 68.301 26.4934 69.2572C27.8088 70.2135 29.4454 70.6188 31.0551 70.3871L37.3792 69.4913C37.8615 69.4248 38.3525 69.4684 38.8155 69.6187C39.2786 69.7691 39.7015 70.0224 40.0527 70.3595L41.4477 71.7085L19.7254 93.4324ZM46.7749 72.5997L44.7154 70.6091L42.1827 68.1591C41.0207 67.0281 39.4632 66.3952 37.8416 66.3951C37.544 66.3956 37.2467 66.4166 36.952 66.4579L30.6248 67.3537C29.8018 67.4746 28.9641 67.2684 28.2912 66.7793C27.6183 66.2902 27.1638 65.557 27.0249 64.7367L25.9208 58.4464C25.7854 57.7322 25.5263 57.0471 25.1552 56.4221C25.1206 56.3475 25.0801 56.2759 25.0343 56.2077C24.4626 55.2775 23.6555 54.5148 22.6945 53.9966L17.0518 51.003C16.3153 50.6168 15.7588 49.9581 15.5013 49.1673C15.2438 48.3765 15.3057 47.5164 15.6737 46.7706L18.479 41.0376C18.8998 40.1813 19.1186 39.24 19.1186 38.2859C19.1186 37.3319 18.8998 36.3905 18.479 35.5343L15.6737 29.7967C15.3057 29.0509 15.2438 28.1908 15.5013 27.4C15.7588 26.6092 16.3153 25.9504 17.0518 25.5643L22.693 22.5707C23.5371 22.1266 24.2679 21.4943 24.8286 20.7227C25.3894 19.9512 25.7652 19.0609 25.927 18.1209L27.031 11.8305C27.1674 11.01 27.6202 10.2757 28.2923 9.78545C28.9643 9.29525 29.8018 9.08828 30.6248 9.20902L36.9504 10.1048C37.8944 10.2403 38.8568 10.1574 39.7636 9.86248C40.6705 9.56755 41.4976 9.06844 42.1812 8.40359L46.7749 3.96296C47.3699 3.38214 48.1684 3.057 48.9998 3.057C49.8313 3.057 50.6298 3.38214 51.2248 3.96296L55.8185 8.40359C56.5017 9.06859 57.3285 9.56791 58.2351 9.86312C59.1417 10.1583 60.1039 10.2415 61.0477 10.1063L67.3748 9.20902C68.198 9.08765 69.0358 9.29366 69.7088 9.78287C70.3818 10.2721 70.8363 11.0055 70.9748 11.8259L72.0788 18.1163C72.2407 19.0561 72.6163 19.9461 73.1768 20.7177C73.7373 21.4893 74.4676 22.1217 75.3113 22.5661L80.954 25.5597C81.6906 25.9458 82.247 26.6046 82.5045 27.3954C82.762 28.1862 82.7001 29.0463 82.3321 29.7921L79.5207 35.5251C79.0999 36.3813 78.8811 37.3227 78.8811 38.2767C78.8811 39.2308 79.0999 40.1722 79.5207 41.0284L82.326 46.766C82.694 47.5118 82.7559 48.3719 82.4984 49.1627C82.2409 49.9535 81.6844 50.6123 80.9478 50.9984L75.3067 53.992C74.4626 54.436 73.7318 55.0683 73.1711 55.8399C72.6103 56.6115 72.2345 57.5017 72.0727 58.4418L70.9687 64.7321C70.8305 65.5518 70.3772 66.2849 69.7056 66.7748C69.0341 67.2646 68.1975 67.4724 67.3748 67.3537L61.0462 66.4563C60.1023 66.3209 59.1399 66.4039 58.233 66.6988C57.3262 66.9938 56.4991 67.4928 55.8154 68.1576L51.2217 72.5982C50.6271 73.1783 49.8293 73.5031 48.9986 73.5034C48.1679 73.5037 47.3699 73.1794 46.7749 72.5997ZM82.0488 80.9006C81.769 80.9651 81.5129 81.107 81.3098 81.31C81.1067 81.5131 80.9648 81.7692 80.9004 82.0491L78.2743 93.4324C78.2743 93.4324 71.6542 86.8123 67.4124 82.5704C63.1705 78.3286 56.5504 71.7085 56.5504 71.7085L57.9439 70.3595C58.2953 70.0227 58.7183 69.7697 59.1813 69.6194C59.6442 69.469 60.1352 69.4252 60.6174 69.4913L66.943 70.3871C68.5528 70.6192 70.1896 70.2141 71.5051 69.2577C72.8206 68.3014 73.711 66.8694 73.9868 65.2666L74.9469 59.7908L93.4321 78.2745L82.0488 80.9006Z" fill="#333333" stroke="white" stroke-width="0.4" mask="url(#path-1-inside-1_223_558)"/>
<path d="M57.8431 31.1028L45.9116 43.6682L40.197 37.1573C40.0685 36.9932 39.9079 36.8571 39.725 36.7572C39.5421 36.6573 39.3407 36.5958 39.1332 36.5765C38.9257 36.5572 38.7165 36.5804 38.5182 36.6448C38.32 36.7092 38.137 36.8133 37.9805 36.9509C37.8239 37.0884 37.6971 37.2565 37.6078 37.4448C37.5184 37.6331 37.4685 37.8376 37.461 38.0459C37.4534 38.2541 37.4885 38.4618 37.564 38.656C37.6395 38.8502 37.7539 39.027 37.9001 39.1755L44.7126 46.9466C44.8529 47.1068 45.025 47.236 45.218 47.3259C45.411 47.4158 45.6207 47.4644 45.8335 47.4688H45.8641C46.0719 47.4686 46.2775 47.4262 46.4684 47.3441C46.6592 47.2619 46.8314 47.1418 46.9743 46.991L60.0588 33.2098C60.2048 33.0655 60.3203 32.8934 60.3984 32.7036C60.4766 32.5139 60.5158 32.3103 60.5137 32.1051C60.5116 31.8999 60.4683 31.6972 60.3863 31.509C60.3044 31.3209 60.1854 31.1511 60.0366 31.0099C59.8877 30.8686 59.712 30.7587 59.5198 30.6867C59.3276 30.6147 59.1229 30.5821 58.9179 30.5907C58.7128 30.5994 58.5116 30.6492 58.3262 30.7371C58.1408 30.8251 57.9749 30.9494 57.8385 31.1028H57.8431Z" fill="#92AD9C"/>
</g>
<defs>
<clipPath id="clip0_223_558">
<rect width="98" height="98" fill="white"/>
</clipPath>
</defs>
</svg>
