<svg width="96" height="96" viewBox="0 0 96 96" fill="none" xmlns="http://www.w3.org/2000/svg">
<path d="M48.8629 49.9283V49.3603V28.0195C48.8629 26.6413 47.7449 25.5251 46.3733 25.5251C45.0017 25.5251 43.8837 26.6413 43.8837 28.0195V51.3379C43.8837 52.2127 44.345 53.0261 45.0973 53.4804C45.0979 53.4807 45.0985 53.4811 45.0991 53.4815L63.2381 64.2977C63.6343 64.5333 64.0757 64.6467 64.5125 64.6467C65.3611 64.6467 66.1883 64.2096 66.6482 63.4364L66.6491 63.4349C67.354 62.2542 66.9684 60.7272 65.7859 60.0208L48.8629 49.9283ZM48.8629 49.9283L49.3507 50.2192L65.7854 60.0205L48.8629 49.9283ZM11.1975 73.1678L11.2007 73.1654C12.2842 72.3272 13.841 72.5291 14.6885 73.6192C22.7159 84.04 34.8593 90.0208 48 90.0208C71.1698 90.0208 90.0208 71.1748 90.0208 48C90.0208 24.8301 71.1699 5.9792 48 5.9792C24.83 5.9792 5.984 24.8303 5.984 48C5.984 50.1508 6.14111 52.2891 6.46096 54.3855C6.66612 55.7414 5.73434 57.0123 4.37453 57.2212L4.37452 57.2211L4.3632 57.223C3.01359 57.4462 1.74777 56.5114 1.54077 55.1418L1.54055 55.1403C1.18337 52.7999 1 50.3975 1 48C1 22.0804 22.085 1 48 1C73.915 1 95 22.0804 95 48C95 73.9149 73.9149 95 48 95C33.301 95 19.7215 88.3139 10.7425 76.6601C9.90328 75.5659 10.111 74.0015 11.1975 73.1678Z" fill="#333333" stroke="white" stroke-width="2"/>
<path d="M67.038 63.6687L67.0385 63.6679C67.8725 62.2712 67.4155 60.4652 66.0178 59.6304C66.0177 59.6304 66.0177 59.6303 66.0176 59.6303L49.5826 49.8288L49.3166 49.6701V49.3603V28.0195C49.3166 26.3907 47.9955 25.0706 46.3724 25.0706C44.7493 25.0706 43.4283 26.3907 43.4283 28.0195V51.3379C43.4283 52.3736 43.9744 53.3343 44.8625 53.8702C44.8629 53.8704 44.8632 53.8706 44.8636 53.8708L63.0049 64.6884L67.038 63.6687ZM67.038 63.6687C66.4926 64.5858 65.5134 65.1013 64.5116 65.1013C63.9965 65.1013 63.4744 64.9675 63.0054 64.6887L67.038 63.6687Z" fill="#92AD9C" stroke="white" stroke-width="1.09091"/>
<circle cx="47.4546" cy="47.4546" r="36.5455" stroke="#92AD9C" stroke-width="2.18182" stroke-linecap="round" stroke-dasharray="1.09 9.27"/>
</svg>
