<svg width="164" height="91" viewBox="0 0 164 91" fill="none" xmlns="http://www.w3.org/2000/svg">
<path d="M136.515 79H157C159.761 79 162 76.7614 162 74V45.2016C162 34.4689 148.254 30.0221 141.968 38.7211V38.7211C137.551 44.8329 128.449 44.8329 124.032 38.7211V38.7211C117.746 30.0221 104 34.4654 104 45.1981C104 54.7379 104 64.9607 104 74.0018C104 76.7632 106.239 79 109 79H130.364" stroke="#333333" stroke-width="2.8" stroke-linecap="round" stroke-linejoin="round"/>
<path d="M34.5152 79H55C57.7614 79 60 76.7614 60 74V45.2016C60 34.4689 46.2541 30.0221 39.9679 38.7211V38.7211C35.5513 44.8329 26.4487 44.8329 22.0321 38.7211V38.7211C15.7459 30.0221 2 34.4654 2 45.1981C2 54.7379 2 64.9607 2 74.0018C2 76.7632 4.23858 79 7 79H28.3636" stroke="#333333" stroke-width="2.8" stroke-linecap="round" stroke-linejoin="round"/>
<path d="M49 50.1062C49 37.8894 64.6667 32.854 71.7846 42.783C76.7989 49.7776 87.2011 49.7776 92.2154 42.783C99.3333 32.854 115 37.8894 115 50.1062V84C115 86.7614 112.761 89 110 89H54C51.2386 89 49 86.7614 49 84V50.1062Z" fill="white"/>
<path d="M81.5714 59.0571V71.8C81.5714 71.8316 81.5459 71.8571 81.5143 71.8571H78.9143C78.8827 71.8571 78.8571 71.8316 78.8571 71.8V69.1787C78.8571 69.1472 78.8316 69.1216 78.8 69.1216H74.2265C74.1786 69.1216 74.152 69.066 74.1821 69.0286L75.8543 66.9544C75.8651 66.9409 75.8815 66.9331 75.8987 66.9331H78.8C78.8316 66.9331 78.8571 66.9076 78.8571 66.876V62.3049C78.8571 62.2514 78.79 62.2273 78.756 62.2686L70.8671 71.8364C70.8563 71.8495 70.8401 71.8571 70.8231 71.8571H68.122C68.0736 71.8571 68.0471 71.8007 68.0781 71.7635L78.7043 59.0205C78.7152 59.0075 78.7312 59 78.7482 59H81.5143C81.5459 59 81.5714 59.0256 81.5714 59.0571Z" fill="#92AD9C"/>
<path d="M82.5234 61.9669V71.8C82.5234 71.8316 82.549 71.8571 82.5805 71.8571H85.2493C85.2808 71.8571 85.3064 71.8316 85.3064 71.8V65.619C85.3064 65.6069 85.3025 65.5951 85.2954 65.5853L82.6267 61.9332C82.5941 61.8886 82.5234 61.9116 82.5234 61.9669Z" fill="#5E5E5E"/>
<path d="M90.8551 71.8339L82.5345 60.5197C82.5273 60.5098 82.5234 60.498 82.5234 60.4858V59.0571C82.5234 59.0256 82.549 59 82.5805 59H84.7205C84.7389 59 84.7561 59.0088 84.7669 59.0238L90.3513 66.7892C90.3837 66.8343 90.4548 66.8114 90.4548 66.7559V59.0571C90.4548 59.0256 90.4804 59 90.5119 59H93.1806C93.2122 59 93.2377 59.0256 93.2377 59.0571V71.8C93.2377 71.8316 93.2122 71.8571 93.1806 71.8571H90.9011C90.883 71.8571 90.8659 71.8485 90.8551 71.8339Z" fill="#5E5E5E"/>
<path d="M68 75.4084V72.3535H69.2094C69.4811 72.3535 69.7129 72.3957 69.9049 72.4801C70.0969 72.5644 70.2445 72.6866 70.3479 72.8467C70.4513 73.0067 70.503 73.1972 70.503 73.4184C70.503 73.6395 70.4513 73.83 70.3479 73.9901C70.2445 74.1472 70.0969 74.2694 69.9049 74.3567C69.7129 74.441 69.4811 74.4832 69.2094 74.4832H68.2437L68.443 74.2781V75.4084H68ZM68.443 74.3217L68.2437 74.1035H69.1961C69.4796 74.1035 69.6937 74.0439 69.8385 73.9246C69.9861 73.8053 70.06 73.6366 70.06 73.4184C70.06 73.2002 69.9861 73.0314 69.8385 72.9121C69.6937 72.7928 69.4796 72.7332 69.1961 72.7332H68.2437L68.443 72.515V74.3217Z" fill="#5E5E5E"/>
<path d="M74.1588 75.4084V72.3535H75.3681C75.6399 72.3535 75.8717 72.3957 76.0637 72.4801C76.2556 72.5644 76.4033 72.6866 76.5067 72.8467C76.61 73.0067 76.6617 73.1972 76.6617 73.4184C76.6617 73.6395 76.61 73.83 76.5067 73.9901C76.4033 74.1472 76.2556 74.2679 76.0637 74.3523C75.8717 74.4367 75.6399 74.4788 75.3681 74.4788H74.4024L74.6018 74.2781V75.4084H74.1588ZM76.232 75.4084L75.4435 74.2999H75.9175L76.7149 75.4084H76.232ZM74.6018 74.3217L74.4024 74.1079H75.3549C75.6384 74.1079 75.8525 74.0483 75.9972 73.929C76.1449 73.8068 76.2187 73.6366 76.2187 73.4184C76.2187 73.2002 76.1449 73.0314 75.9972 72.9121C75.8525 72.7928 75.6384 72.7332 75.3549 72.7332H74.4024L74.6018 72.515V74.3217Z" fill="#5E5E5E"/>
<path d="M81.739 75.4433C81.5028 75.4433 81.2827 75.404 81.079 75.3255C80.8781 75.2469 80.7039 75.1378 80.5562 74.9982C80.4085 74.8556 80.2934 74.6898 80.2107 74.5007C80.128 74.3116 80.0866 74.105 80.0866 73.881C80.0866 73.6569 80.128 73.4504 80.2107 73.2613C80.2934 73.0721 80.4085 72.9078 80.5562 72.7681C80.7039 72.6255 80.8781 72.515 81.079 72.4364C81.2798 72.3579 81.4998 72.3186 81.739 72.3186C81.9753 72.3186 82.1924 72.3579 82.3902 72.4364C82.5911 72.5121 82.7653 72.6212 82.913 72.7637C83.0636 72.9034 83.1788 73.0678 83.2585 73.2569C83.3412 73.446 83.3826 73.654 83.3826 73.881C83.3826 74.1079 83.3412 74.3159 83.2585 74.505C83.1788 74.6941 83.0636 74.86 82.913 75.0025C82.7653 75.1422 82.5911 75.2513 82.3902 75.3299C82.1924 75.4055 81.9753 75.4433 81.739 75.4433ZM81.739 75.0549C81.9103 75.0549 82.0683 75.0258 82.213 74.9676C82.3607 74.9094 82.4877 74.828 82.594 74.7232C82.7033 74.6156 82.7875 74.4905 82.8465 74.3479C82.9086 74.2054 82.9396 74.0497 82.9396 73.881C82.9396 73.7122 82.9086 73.5566 82.8465 73.414C82.7875 73.2714 82.7033 73.1478 82.594 73.043C82.4877 72.9354 82.3607 72.8525 82.213 72.7943C82.0683 72.7361 81.9103 72.707 81.739 72.707C81.5648 72.707 81.4038 72.7361 81.2562 72.7943C81.1114 72.8525 80.9844 72.9354 80.8752 73.043C80.7659 73.1478 80.6803 73.2714 80.6182 73.414C80.5592 73.5566 80.5296 73.7122 80.5296 73.881C80.5296 74.0497 80.5592 74.2054 80.6182 74.3479C80.6803 74.4905 80.7659 74.6156 80.8752 74.7232C80.9844 74.828 81.1114 74.9094 81.2562 74.9676C81.4038 75.0258 81.5648 75.0549 81.739 75.0549Z" fill="#5E5E5E"/>
<path d="M87.4201 73.798H89.0193V74.1734H87.4201V73.798ZM87.4644 75.4084H87.0214V72.3535H89.2098V72.7332H87.4644V75.4084Z" fill="#5E5E5E"/>
<path d="M92.7951 75.4084V72.3535H93.2381V75.4084H92.7951Z" fill="#5E5E5E"/>
<path d="M132.571 52.0571V64.8C132.571 64.8316 132.546 64.8571 132.514 64.8571H129.914C129.883 64.8571 129.857 64.8316 129.857 64.8V62.1787C129.857 62.1472 129.832 62.1216 129.8 62.1216H125.227C125.179 62.1216 125.152 62.066 125.182 62.0286L126.854 59.9544C126.865 59.9409 126.881 59.9331 126.899 59.9331H129.8C129.832 59.9331 129.857 59.9076 129.857 59.876V55.3049C129.857 55.2514 129.79 55.2273 129.756 55.2686L121.867 64.8364C121.856 64.8495 121.84 64.8571 121.823 64.8571H119.122C119.074 64.8571 119.047 64.8007 119.078 64.7635L129.704 52.0205C129.715 52.0075 129.731 52 129.748 52H132.514C132.546 52 132.571 52.0256 132.571 52.0571Z" fill="#92AD9C"/>
<path d="M133.523 54.9669V64.8C133.523 64.8316 133.549 64.8571 133.581 64.8571H136.249C136.281 64.8571 136.306 64.8316 136.306 64.8V58.619C136.306 58.6069 136.303 58.5951 136.295 58.5853L133.627 54.9332C133.594 54.8886 133.523 54.9116 133.523 54.9669Z" fill="#5E5E5E"/>
<path d="M141.855 64.8339L133.535 53.5197C133.527 53.5098 133.523 53.498 133.523 53.4858V52.0571C133.523 52.0256 133.549 52 133.581 52H135.721C135.739 52 135.756 52.0088 135.767 52.0238L141.351 59.7892C141.384 59.8343 141.455 59.8114 141.455 59.7559V52.0571C141.455 52.0256 141.48 52 141.512 52H144.181C144.212 52 144.238 52.0256 144.238 52.0571V64.8C144.238 64.8316 144.212 64.8571 144.181 64.8571H141.901C141.883 64.8571 141.866 64.8485 141.855 64.8339Z" fill="#5E5E5E"/>
<path d="M119 68.4084V65.3535H120.209C120.481 65.3535 120.713 65.3957 120.905 65.4801C121.097 65.5644 121.245 65.6866 121.348 65.8467C121.451 66.0067 121.503 66.1972 121.503 66.4184C121.503 66.6395 121.451 66.83 121.348 66.9901C121.245 67.1472 121.097 67.2694 120.905 67.3567C120.713 67.441 120.481 67.4832 120.209 67.4832H119.244L119.443 67.2781V68.4084H119ZM119.443 67.3217L119.244 67.1035H120.196C120.48 67.1035 120.694 67.0439 120.838 66.9246C120.986 66.8053 121.06 66.6366 121.06 66.4184C121.06 66.2002 120.986 66.0314 120.838 65.9121C120.694 65.7928 120.48 65.7332 120.196 65.7332H119.244L119.443 65.515V67.3217Z" fill="#5E5E5E"/>
<path d="M125.159 68.4084V65.3535H126.368C126.64 65.3535 126.872 65.3957 127.064 65.4801C127.256 65.5644 127.403 65.6866 127.507 65.8467C127.61 66.0067 127.662 66.1972 127.662 66.4184C127.662 66.6395 127.61 66.83 127.507 66.9901C127.403 67.1472 127.256 67.2679 127.064 67.3523C126.872 67.4367 126.64 67.4788 126.368 67.4788H125.402L125.602 67.2781V68.4084H125.159ZM127.232 68.4084L126.443 67.2999H126.917L127.715 68.4084H127.232ZM125.602 67.3217L125.402 67.1079H126.355C126.638 67.1079 126.852 67.0483 126.997 66.929C127.145 66.8068 127.219 66.6366 127.219 66.4184C127.219 66.2002 127.145 66.0314 126.997 65.9121C126.852 65.7928 126.638 65.7332 126.355 65.7332H125.402L125.602 65.515V67.3217Z" fill="#5E5E5E"/>
<path d="M132.739 68.4433C132.503 68.4433 132.283 68.404 132.079 68.3255C131.878 68.2469 131.704 68.1378 131.556 67.9982C131.409 67.8556 131.293 67.6898 131.211 67.5007C131.128 67.3116 131.087 67.105 131.087 66.881C131.087 66.6569 131.128 66.4504 131.211 66.2613C131.293 66.0721 131.409 65.9078 131.556 65.7681C131.704 65.6255 131.878 65.515 132.079 65.4364C132.28 65.3579 132.5 65.3186 132.739 65.3186C132.975 65.3186 133.192 65.3579 133.39 65.4364C133.591 65.5121 133.765 65.6212 133.913 65.7637C134.064 65.9034 134.179 66.0678 134.259 66.2569C134.341 66.446 134.383 66.654 134.383 66.881C134.383 67.1079 134.341 67.3159 134.259 67.505C134.179 67.6941 134.064 67.86 133.913 68.0025C133.765 68.1422 133.591 68.2513 133.39 68.3299C133.192 68.4055 132.975 68.4433 132.739 68.4433ZM132.739 68.0549C132.91 68.0549 133.068 68.0258 133.213 67.9676C133.361 67.9094 133.488 67.828 133.594 67.7232C133.703 67.6156 133.787 67.4905 133.847 67.3479C133.909 67.2054 133.94 67.0497 133.94 66.881C133.94 66.7122 133.909 66.5566 133.847 66.414C133.787 66.2714 133.703 66.1478 133.594 66.043C133.488 65.9354 133.361 65.8525 133.213 65.7943C133.068 65.7361 132.91 65.707 132.739 65.707C132.565 65.707 132.404 65.7361 132.256 65.7943C132.111 65.8525 131.984 65.9354 131.875 66.043C131.766 66.1478 131.68 66.2714 131.618 66.414C131.559 66.5566 131.53 66.7122 131.53 66.881C131.53 67.0497 131.559 67.2054 131.618 67.3479C131.68 67.4905 131.766 67.6156 131.875 67.7232C131.984 67.828 132.111 67.9094 132.256 67.9676C132.404 68.0258 132.565 68.0549 132.739 68.0549Z" fill="#5E5E5E"/>
<path d="M138.42 66.798H140.019V67.1734H138.42V66.798ZM138.464 68.4084H138.021V65.3535H140.21V65.7332H138.464V68.4084Z" fill="#5E5E5E"/>
<path d="M143.795 68.4084V65.3535H144.238V68.4084H143.795Z" fill="#5E5E5E"/>
<path d="M29.5714 52.0571V64.8C29.5714 64.8316 29.5459 64.8571 29.5143 64.8571H26.9143C26.8827 64.8571 26.8571 64.8316 26.8571 64.8V62.1787C26.8571 62.1472 26.8316 62.1216 26.8 62.1216H22.2265C22.1786 62.1216 22.152 62.066 22.1821 62.0286L23.8543 59.9544C23.8651 59.9409 23.8815 59.9331 23.8987 59.9331H26.8C26.8316 59.9331 26.8571 59.9076 26.8571 59.876V55.3049C26.8571 55.2514 26.79 55.2273 26.756 55.2686L18.8671 64.8364C18.8563 64.8495 18.8401 64.8571 18.8231 64.8571H16.122C16.0736 64.8571 16.0471 64.8007 16.0781 64.7635L26.7043 52.0205C26.7152 52.0075 26.7312 52 26.7482 52H29.5143C29.5459 52 29.5714 52.0256 29.5714 52.0571Z" fill="#92AD9C"/>
<path d="M30.5234 54.9669V64.8C30.5234 64.8316 30.549 64.8571 30.5805 64.8571H33.2493C33.2808 64.8571 33.3064 64.8316 33.3064 64.8V58.619C33.3064 58.6069 33.3025 58.5951 33.2954 58.5853L30.6267 54.9332C30.5941 54.8886 30.5234 54.9116 30.5234 54.9669Z" fill="#5E5E5E"/>
<path d="M38.8551 64.8339L30.5345 53.5197C30.5273 53.5098 30.5234 53.498 30.5234 53.4858V52.0571C30.5234 52.0256 30.549 52 30.5805 52H32.7205C32.7389 52 32.7561 52.0088 32.7669 52.0238L38.3513 59.7892C38.3837 59.8343 38.4548 59.8114 38.4548 59.7559V52.0571C38.4548 52.0256 38.4804 52 38.5119 52H41.1806C41.2122 52 41.2377 52.0256 41.2377 52.0571V64.8C41.2377 64.8316 41.2122 64.8571 41.1806 64.8571H38.9011C38.883 64.8571 38.8659 64.8485 38.8551 64.8339Z" fill="#5E5E5E"/>
<path d="M16 68.4084V65.3535H17.2094C17.4811 65.3535 17.7129 65.3957 17.9049 65.4801C18.0969 65.5644 18.2445 65.6866 18.3479 65.8467C18.4513 66.0067 18.503 66.1972 18.503 66.4184C18.503 66.6395 18.4513 66.83 18.3479 66.9901C18.2445 67.1472 18.0969 67.2694 17.9049 67.3567C17.7129 67.441 17.4811 67.4832 17.2094 67.4832H16.2437L16.443 67.2781V68.4084H16ZM16.443 67.3217L16.2437 67.1035H17.1961C17.4796 67.1035 17.6937 67.0439 17.8385 66.9246C17.9861 66.8053 18.06 66.6366 18.06 66.4184C18.06 66.2002 17.9861 66.0314 17.8385 65.9121C17.6937 65.7928 17.4796 65.7332 17.1961 65.7332H16.2437L16.443 65.515V67.3217Z" fill="#5E5E5E"/>
<path d="M22.1588 68.4084V65.3535H23.3681C23.6399 65.3535 23.8717 65.3957 24.0637 65.4801C24.2556 65.5644 24.4033 65.6866 24.5067 65.8467C24.61 66.0067 24.6617 66.1972 24.6617 66.4184C24.6617 66.6395 24.61 66.83 24.5067 66.9901C24.4033 67.1472 24.2556 67.2679 24.0637 67.3523C23.8717 67.4367 23.6399 67.4788 23.3681 67.4788H22.4024L22.6018 67.2781V68.4084H22.1588ZM24.232 68.4084L23.4435 67.2999H23.9175L24.7149 68.4084H24.232ZM22.6018 67.3217L22.4024 67.1079H23.3549C23.6384 67.1079 23.8525 67.0483 23.9972 66.929C24.1449 66.8068 24.2187 66.6366 24.2187 66.4184C24.2187 66.2002 24.1449 66.0314 23.9972 65.9121C23.8525 65.7928 23.6384 65.7332 23.3549 65.7332H22.4024L22.6018 65.515V67.3217Z" fill="#5E5E5E"/>
<path d="M29.739 68.4433C29.5028 68.4433 29.2827 68.404 29.079 68.3255C28.8781 68.2469 28.7039 68.1378 28.5562 67.9982C28.4085 67.8556 28.2934 67.6898 28.2107 67.5007C28.128 67.3116 28.0866 67.105 28.0866 66.881C28.0866 66.6569 28.128 66.4504 28.2107 66.2613C28.2934 66.0721 28.4085 65.9078 28.5562 65.7681C28.7039 65.6255 28.8781 65.515 29.079 65.4364C29.2798 65.3579 29.4998 65.3186 29.739 65.3186C29.9753 65.3186 30.1924 65.3579 30.3902 65.4364C30.5911 65.5121 30.7653 65.6212 30.913 65.7637C31.0636 65.9034 31.1788 66.0678 31.2585 66.2569C31.3412 66.446 31.3826 66.654 31.3826 66.881C31.3826 67.1079 31.3412 67.3159 31.2585 67.505C31.1788 67.6941 31.0636 67.86 30.913 68.0025C30.7653 68.1422 30.5911 68.2513 30.3902 68.3299C30.1924 68.4055 29.9753 68.4433 29.739 68.4433ZM29.739 68.0549C29.9103 68.0549 30.0683 68.0258 30.213 67.9676C30.3607 67.9094 30.4877 67.828 30.594 67.7232C30.7033 67.6156 30.7875 67.4905 30.8465 67.3479C30.9086 67.2054 30.9396 67.0497 30.9396 66.881C30.9396 66.7122 30.9086 66.5566 30.8465 66.414C30.7875 66.2714 30.7033 66.1478 30.594 66.043C30.4877 65.9354 30.3607 65.8525 30.213 65.7943C30.0683 65.7361 29.9103 65.707 29.739 65.707C29.5648 65.707 29.4038 65.7361 29.2562 65.7943C29.1114 65.8525 28.9844 65.9354 28.8752 66.043C28.7659 66.1478 28.6803 66.2714 28.6182 66.414C28.5592 66.5566 28.5296 66.7122 28.5296 66.881C28.5296 67.0497 28.5592 67.2054 28.6182 67.3479C28.6803 67.4905 28.7659 67.6156 28.8752 67.7232C28.9844 67.828 29.1114 67.9094 29.2562 67.9676C29.4038 68.0258 29.5648 68.0549 29.739 68.0549Z" fill="#5E5E5E"/>
<path d="M35.4201 66.798H37.0193V67.1734H35.4201V66.798ZM35.4644 68.4084H35.0214V65.3535H37.2098V65.7332H35.4644V68.4084Z" fill="#5E5E5E"/>
<path d="M40.7951 68.4084V65.3535H41.2381V68.4084H40.7951Z" fill="#5E5E5E"/>
<path d="M86 89H110C112.761 89 115 86.7614 115 84V50.1062C115 37.8894 99.3333 32.854 92.2154 42.783V42.783C87.2011 49.7776 76.7989 49.7776 71.7846 42.783V42.783C64.6667 32.854 49 37.8849 49 50.1017C49 61.3418 49 73.418 49 84.0086C49 86.77 51.2386 89 54 89H79" stroke="#333333" stroke-width="2.8" stroke-linecap="round" stroke-linejoin="round"/>
<path d="M100.6 20.5C100.6 31.0814 92.2401 39.6 82 39.6C71.7599 39.6 63.4 31.0814 63.4 20.5C63.4 9.91857 71.7599 1.4 82 1.4C92.2401 1.4 100.6 9.91857 100.6 20.5Z" stroke="#92AD9C" stroke-width="2.8"/>
<path d="M147.6 20.5C147.6 28.8804 141.023 35.6 133 35.6C124.977 35.6 118.4 28.8804 118.4 20.5C118.4 12.1196 124.977 5.4 133 5.4C141.023 5.4 147.6 12.1196 147.6 20.5Z" stroke="#92AD9C" stroke-width="2.8"/>
<path d="M45.6 20.5C45.6 28.8804 39.0231 35.6 31 35.6C22.9769 35.6 16.4 28.8804 16.4 20.5C16.4 12.1196 22.9769 5.4 31 5.4C39.0231 5.4 45.6 12.1196 45.6 20.5Z" stroke="#92AD9C" stroke-width="2.8"/>
</svg>
