<svg width="143" height="85" viewBox="0 0 143 85" fill="none" xmlns="http://www.w3.org/2000/svg">
<g clip-path="url(#clip0_215_250)">
<path d="M0.156753 38.0777L14.9118 1.39582C15.0201 1.12646 15.1814 0.880654 15.3866 0.672452C15.5918 0.464251 15.8368 0.297727 16.1076 0.182397C16.3784 0.0670675 16.6697 0.00519163 16.9648 0.000297371C17.26 -0.00459689 17.5533 0.0475878 17.8279 0.153874L29.5687 4.69667C29.8434 4.80289 30.094 4.96113 30.3063 5.16236C30.5186 5.36358 30.6883 5.60385 30.8059 5.86944C30.9235 6.13503 30.9866 6.42074 30.9916 6.71025C30.9966 6.99976 30.9434 7.2874 30.835 7.55674L16.08 44.2389C15.9716 44.5083 15.8103 44.754 15.6051 44.9622C15.3999 45.1704 15.1549 45.3369 14.8841 45.4522C14.6133 45.5675 14.322 45.6293 14.0269 45.6342C13.7317 45.6391 13.4384 45.5869 13.1638 45.4806L1.42305 40.9381C0.868451 40.7234 0.423498 40.3014 0.186034 39.7651C-0.0514306 39.2287 -0.0619629 38.6217 0.156753 38.0777Z" stroke="#92AD9C" stroke-width="3" stroke-miterlimit="10" stroke-linecap="round" stroke-linejoin="round"/>
<path d="M103.558 58.5963L95.877 52.7917" stroke="#92AD9C" stroke-width="3" stroke-miterlimit="10" stroke-linecap="round" stroke-linejoin="round"/>
<path d="M93.2805 66.7075L86.4521 61.5514" stroke="#92AD9C" stroke-width="3" stroke-miterlimit="10" stroke-linecap="round" stroke-linejoin="round"/>
<path d="M81.9836 74.0945L77.1172 70.4009" stroke="#92AD9C" stroke-width="3" stroke-miterlimit="10" stroke-linecap="round" stroke-linejoin="round"/>
<path d="M30.6835 61.9618C28.2804 59.9632 27.984 56.4327 30.0217 54.0758L35.3559 47.9349C37.3936 45.578 40.9937 45.2873 43.3965 47.2858C45.7996 49.2841 46.096 52.8146 44.0583 55.1715L38.7241 61.3127C36.6864 63.6696 33.0866 63.9603 30.6835 61.9618Z" stroke="#92AD9C" stroke-width="3" stroke-miterlimit="10" stroke-linecap="round" stroke-linejoin="round"/>
<path d="M39.3865 69.1984C36.9834 67.1999 36.6873 63.6693 38.7247 61.3124L44.0592 55.1715C46.0966 52.8146 49.6967 52.524 52.0998 54.5225C54.5029 56.5207 54.799 60.0515 52.7616 62.4082L47.4271 68.5493C45.3894 70.9062 41.7896 71.1969 39.3865 69.1984Z" stroke="#92AD9C" stroke-width="3" stroke-miterlimit="10" stroke-linecap="round" stroke-linejoin="round"/>
<path d="M48.0888 76.4356C45.6857 74.4371 45.3893 70.9066 47.427 68.5496L52.7615 62.4085C54.7989 60.0519 58.399 59.7612 60.8021 61.7597C63.2049 63.7579 63.5013 67.2885 61.4636 69.6454L56.1294 75.7866C54.0917 78.1435 50.4919 78.4342 48.0888 76.4356Z" stroke="#92AD9C" stroke-width="3" stroke-miterlimit="10" stroke-linecap="round" stroke-linejoin="round"/>
<path d="M56.7909 83.6723C54.3878 81.6738 54.0915 78.1432 56.1292 75.7863L61.4634 69.6454C63.5011 67.2885 67.1011 66.9978 69.504 68.9963C71.9071 70.9946 72.2034 74.5251 70.1657 76.8821L64.8315 83.0232C62.7938 85.3801 59.194 85.6708 56.7909 83.6723Z" stroke="#92AD9C" stroke-width="3" stroke-miterlimit="10" stroke-linecap="round" stroke-linejoin="round"/>
<path d="M113.129 49.746L110.26 47.6694L96.7657 37.9017L95.2195 36.8355C82.48 38.9579 73.9393 32.1118 70.4627 28.5514C69.4401 27.5039 67.7523 27.4641 66.6523 28.4331C54.7066 38.9554 47.7891 36.2584 44.4304 33.1283C42.8154 31.6234 43.0933 29.0291 44.9685 27.8487C51.3891 23.8068 57.3848 18.6909 61.6688 14.7037L60.9061 14.4235C58.1944 13.4269 55.3444 12.8389 52.4532 12.6795L44.553 12.2444C43.5183 12.1873 42.4805 12.1746 41.4464 12.2398C39.577 12.3577 37.7052 12.05 35.9772 11.3408L30.2574 8.99344L16.2295 43.8676L27.3194 50.7272L30.8292 53.1468L35.3566 47.9352C37.394 45.578 40.9938 45.2876 43.3969 47.2859C45.8 49.2844 46.0964 52.8149 44.0587 55.1718C46.0964 52.8149 49.6961 52.5243 52.0992 54.5228C54.5024 56.5213 54.7987 60.0519 52.761 62.4088C54.7987 60.0519 58.3985 59.7612 60.8016 61.7597C63.2047 63.758 63.5011 67.2888 61.4634 69.6454C63.5011 67.2888 67.1009 66.9981 69.504 68.9964C71.9071 70.9949 72.2035 74.5257 70.1658 76.8824L68.002 79.3733L72.7648 82.8209C75.4099 84.7353 79.1374 84.5155 81.4085 82.1848C83.6191 79.9165 83.7509 76.502 81.9837 74.0948L84.3718 75.8233C87.0955 77.7947 90.953 77.4922 93.1916 75.0024C95.3602 72.5904 95.3052 69.0517 93.2802 66.7075L94.6219 67.6782C97.2189 69.5579 100.869 69.3875 103.154 67.1517C105.583 64.7747 105.647 61.0508 103.558 58.5963L105.573 60.0544C108.388 62.0922 112.353 61.569 114.517 58.8537C116.776 56.0187 116.081 51.8826 113.129 49.746Z" stroke="#92AD9C" stroke-width="3" stroke-miterlimit="10" stroke-linecap="round" stroke-linejoin="round"/>
<path d="M80.8472 10.2588L72.6561 8.98551C69.885 8.5546 67.069 9.45452 65.0966 11.4113C61.0322 15.4439 53.3619 22.5648 44.9688 27.8484C43.0937 29.0288 42.8155 31.6228 44.4308 33.128C47.7891 36.2579 54.7067 38.9548 66.6527 28.4325C67.7527 27.4635 69.4402 27.5033 70.4631 28.5508C73.9455 32.1172 82.5071 38.9808 95.2806 36.8262L114.485 50.7269L126.489 43.1652L112.781 9.08823L104.45 12.1046C102.14 12.9409 99.6489 13.1816 97.2164 12.8036L90.8539 11.8145" stroke="#333333" stroke-width="3" stroke-miterlimit="10" stroke-linecap="round" stroke-linejoin="round"/>
<path d="M133.776 15.5379L128.088 1.39586C127.869 0.851949 127.439 0.415554 126.892 0.182652C126.345 -0.0502493 125.726 -0.060586 125.172 0.153914L113.431 4.69672C112.876 4.91135 112.431 5.33323 112.194 5.86958C111.956 6.40592 111.946 7.01282 112.165 7.55678L126.92 44.239C127.138 44.7829 127.569 45.2193 128.115 45.4522C128.662 45.6851 129.281 45.6954 129.836 45.4809L141.577 40.9381C141.851 40.8319 142.102 40.6737 142.314 40.4724C142.526 40.2712 142.696 40.0309 142.814 39.7653C142.931 39.4998 142.994 39.214 142.999 38.9245C143.004 38.635 142.951 38.3474 142.843 38.0781L137.477 24.7372" stroke="#333333" stroke-width="3" stroke-miterlimit="10" stroke-linecap="round" stroke-linejoin="round"/>
</g>
<defs>
<clipPath id="clip0_215_250">
<rect width="143" height="85" fill="white" transform="matrix(1 0 0 -1 0 85)"/>
</clipPath>
</defs>
</svg>
