<svg width="879" height="581" viewBox="0 0 879 581" fill="none" xmlns="http://www.w3.org/2000/svg">
<path d="M476 2.99999V448C476 449.105 475.105 450 474 450H382.4C381.295 450 380.4 449.105 380.4 448V356.468C380.4 355.363 379.505 354.468 378.4 354.468H217.304C215.619 354.468 214.689 352.513 215.752 351.206L274.64 278.781C275.02 278.314 275.59 278.043 276.192 278.043H378.4C379.505 278.043 380.4 277.147 380.4 276.043V116.395C380.4 114.523 378.059 113.677 376.862 115.116L98.9798 449.279C98.5998 449.736 98.0363 450 97.442 450H2.29534C0.595428 450 -0.329437 448.014 0.764714 446.713L375.021 1.7127C375.401 1.26086 375.961 1 376.551 1H474C475.105 1 476 1.89542 476 2.99999Z" fill="#92AD9C"/>
<path d="M505 104.642V448C505 449.105 505.895 450 507 450H599.883C600.988 450 601.883 449.105 601.883 448V232.151C601.883 231.728 601.749 231.316 601.5 230.974L508.617 103.465C507.477 101.9 505 102.706 505 104.642Z" fill="#5E5E5E"/>
<path d="M795.05 449.183L505.387 54.0705C505.136 53.7275 505 53.3133 505 52.888V3C505 1.89543 505.895 1 507 1H581.479C582.124 1 582.729 1.31078 583.105 1.83473L777.491 272.985C778.624 274.565 781.117 273.764 781.117 271.82V3C781.117 1.89543 782.012 1 783.117 1H876C877.105 1 878 1.89542 878 2.99999V448C878 449.105 877.105 450 876 450H796.663C796.026 450 795.427 449.696 795.05 449.183Z" fill="#5E5E5E"/>
<path d="M1 578.771V471.229H43.0253C52.4669 471.229 60.523 472.714 67.1937 475.684C73.8643 478.655 78.9957 482.956 82.5876 488.589C86.1795 494.223 87.9754 500.931 87.9754 508.715C87.9754 516.499 86.1795 523.208 82.5876 528.841C78.9957 534.372 73.8643 538.673 67.1937 541.746C60.523 544.716 52.4669 546.201 43.0253 546.201H9.46663L16.3939 538.98V578.771H1ZM16.3939 540.517L9.46663 532.835H42.5635C52.4156 532.835 59.8559 530.736 64.8846 526.536C70.0159 522.337 72.5815 516.397 72.5815 508.715C72.5815 501.034 70.0159 495.093 64.8846 490.894C59.8559 486.695 52.4156 484.595 42.5635 484.595H9.46663L16.3939 476.913V540.517Z" fill="#5E5E5E"/>
<path d="M215.011 578.771V471.229H257.036C266.478 471.229 274.534 472.714 281.205 475.684C287.875 478.655 293.007 482.956 296.599 488.589C300.19 494.223 301.986 500.931 301.986 508.715C301.986 516.499 300.19 523.208 296.599 528.841C293.007 534.372 287.875 538.622 281.205 541.592C274.534 544.562 266.478 546.047 257.036 546.047H223.478L230.405 538.98V578.771H215.011ZM287.054 578.771L259.653 539.749H276.125L303.834 578.771H287.054ZM230.405 540.517L223.478 532.989H256.574C266.427 532.989 273.867 530.889 278.896 526.69C284.027 522.388 286.592 516.397 286.592 508.715C286.592 501.034 284.027 495.093 278.896 490.894C273.867 486.695 266.427 484.595 256.574 484.595H223.478L230.405 476.913V540.517Z" fill="#5E5E5E"/>
<path d="M478.418 580C470.208 580 462.563 578.617 455.481 575.852C448.503 573.087 442.448 569.246 437.317 564.33C432.185 559.311 428.183 553.473 425.309 546.816C422.436 540.158 420.999 532.886 420.999 525C420.999 517.114 422.436 509.842 425.309 503.184C428.183 496.527 432.185 490.74 437.317 485.824C442.448 480.805 448.503 476.913 455.481 474.148C462.46 471.383 470.106 470 478.418 470C486.628 470 494.171 471.383 501.047 474.148C508.026 476.811 514.081 480.652 519.212 485.67C524.446 490.587 528.448 496.373 531.219 503.031C534.093 509.688 535.53 517.011 535.53 525C535.53 532.989 534.093 540.312 531.219 546.969C528.448 553.627 524.446 559.465 519.212 564.483C514.081 569.399 508.026 573.24 501.047 576.006C494.171 578.669 486.628 580 478.418 580ZM478.418 566.327C484.371 566.327 489.861 565.303 494.89 563.254C500.021 561.206 504.434 558.338 508.128 554.651C511.926 550.861 514.85 546.457 516.903 541.439C519.058 536.42 520.136 530.94 520.136 525C520.136 519.06 519.058 513.58 516.903 508.561C514.85 503.543 511.926 499.19 508.128 495.503C504.434 491.713 500.021 488.794 494.89 486.746C489.861 484.697 484.371 483.673 478.418 483.673C472.363 483.673 466.77 484.697 461.639 486.746C456.61 488.794 452.197 491.713 448.4 495.503C444.603 499.19 441.627 503.543 439.472 508.561C437.419 513.58 436.393 519.06 436.393 525C436.393 530.94 437.419 536.42 439.472 541.439C441.627 546.457 444.603 550.861 448.4 554.651C452.197 558.338 456.61 561.206 461.639 563.254C466.77 565.303 472.363 566.327 478.418 566.327Z" fill="#5E5E5E"/>
<path d="M675.829 522.081H731.401V535.293H675.829V522.081ZM677.368 578.771H661.975V471.229H738.02V484.595H677.368V578.771Z" fill="#5E5E5E"/>
<path d="M862.606 578.771V471.229H878V578.771H862.606Z" fill="#5E5E5E"/>
</svg>
